# xmcd
#
# Track frame offsets:
# 150
# 21293
# 38681
# 54485
# 71637
# 96481
# 112472
# 141708
# 163623
# 177048
# 197142
# 211019
# 226381
# 239600
# 251405
# 265737
#
# Disc length: 3794 seconds
#
#
# Revision: 0
# Processed by: cddbd v1.5.1PL2 Copyright (c) Steve Scherf et al.
# Submitted via: FreeRIP 2.942 
#
DISCID=ee0ed010
DTITLE=Piet Veerman - Hollands Goud CD2
DYEAR=1900
DGENRE=
TTITLE0=Song of the ocean
TTITLE1=Warm and tender love
TTITLE2=Loving her was easier
TTITLE3=Blue Bayou
TTITLE4=Has amando una mujer deveras
TTITLE5=Homely girl
TTITLE6=Three times a lady
TTITLE7=If you give me your heart
TTITLE8=Five hundred miles away from home
TTITLE9=Canta libre
TTITLE10=Devil woman
TTITLE11=Don't worry
TTITLE12=Rocky mountain sweet
TTITLE13=I'd fight the world
TTITLE14=Blowing in the wind
TTITLE15=Medley
EXTD=
EXTT0=
EXTT1=
EXTT2=
EXTT3=
EXTT4=
EXTT5=
EXTT6=
EXTT7=
EXTT8=
EXTT9=
EXTT10=
EXTT11=
EXTT12=
EXTT13=
EXTT14=
EXTT15=
PLAYORDER=
